<svg xmlns="http://www.w3.org/2000/svg" viewBox="0 0 1920 2000" width="1920" height="2000">
	<style>
		tspan { white-space:pre }
		.shp0 { opacity: 0.1; fill: #c87072 } 
		.shp1 { opacity: 0.1; fill: #e79c00 } 
	</style>
	<path id="Background" class="shp0" d="M141 669C28.19 669 -63 577.81 -63 465C-63 352.19 28.19 261 141 261C253.81 261 345 352.19 345 465C345 577.81 253.81 669 141 669Z" />
	<path id="Background copy" class="shp0" d="M1920 400C1750.78 400 1614 263.22 1614 94C1614 -75.22 1750.78 -212 1920 -212C2089.22 -212 2226 -75.22 2226 94C2226 263.22 2089.22 400 1920 400Z" />
	<path id="Background copy 2" class="shp0" d="M1006.5 721C959.22 721 921 682.78 921 635.5C921 588.22 959.22 550 1006.5 550C1053.78 550 1092 588.22 1092 635.5C1092 682.78 1053.78 721 1006.5 721Z" />
	<path id="Background copy 3" class="shp0" d="M1636.5 1903C1542.77 1903 1467 1827.23 1467 1733.5C1467 1639.77 1542.77 1564 1636.5 1564C1730.23 1564 1806 1639.77 1806 1733.5C1806 1827.23 1730.23 1903 1636.5 1903Z" />
	<path id="Background copy 4" class="shp1" d="M874.5 1540C762.52 1540 672 1449.48 672 1337.5C672 1225.52 762.52 1135 874.5 1135C986.48 1135 1077 1225.52 1077 1337.5C1077 1449.48 986.48 1540 874.5 1540Z" />
	<path id="Background copy 8" class="shp1" d="M193.5 1720C142.9 1720 102 1679.1 102 1628.5C102 1577.9 142.9 1537 193.5 1537C244.1 1537 285 1577.9 285 1628.5C285 1679.1 244.1 1720 193.5 1720Z" />
	<path id="Background copy 7" class="shp1" d="M-115.5 1078C-227.48 1078 -318 987.48 -318 875.5C-318 763.52 -227.48 673 -115.5 673C-3.52 673 87 763.52 87 875.5C87 987.48 -3.52 1078 -115.5 1078Z" />
	<path id="Background copy 6" class="shp1" d="M1711.5 1171C1566.34 1171 1449 1053.66 1449 908.5C1449 763.34 1566.34 646 1711.5 646C1856.66 646 1974 763.34 1974 908.5C1974 1053.66 1856.66 1171 1711.5 1171Z" />
	<path id="Background copy 5" class="shp1" d="M505.5 205C476.47 205 453 181.53 453 152.5C453 123.47 476.47 100 505.5 100C534.53 100 558 123.47 558 152.5C558 181.53 534.53 205 505.5 205Z" />
</svg>